<?xml version="1.0" encoding="UTF-8"?>
<svg id="Capa_2" data-name="Capa 2" xmlns="http://www.w3.org/2000/svg" xmlns:xlink="http://www.w3.org/1999/xlink" viewBox="0 0 1000 1000">
  <defs>
    <style>
      .cls-1 {
        fill: #fff;
      }

      .cls-2 {
        fill: url(#Degradado_sin_nombre_35);
      }
    </style>
    <linearGradient id="Degradado_sin_nombre_35" data-name="Degradado sin nombre 35" x1="146.45" y1="853.55" x2="853.55" y2="146.45" gradientUnits="userSpaceOnUse">
      <stop offset="0" stop-color="#22577a"/>
      <stop offset="1" stop-color="#80ed99"/>
    </linearGradient>
  </defs>
  <g id="Capa_1-2" data-name="Capa 1">
    <g>
      <circle class="cls-2" cx="500" cy="500" r="500"/>
      <g>
        <path class="cls-1" d="M490.57,773.58c0-44.6-22.6-86.06-59.55-110.38-.25-1.49-.52-2.97-.81-4.45,37.96-52.69,60.36-117.31,60.36-187.06,0-.82,0-1.67-.03-2.49,0-.23-.04-.46-.05-.69-.98-29.53-15.58-55.66-37.72-72.29,22-16.52,36.57-42.42,37.73-71.7,1.22-30.97-22.73-58.78-53.69-60.3-32.05-1.57-58.7,23.67-59.43,55.21-.22,9.73,7.12,19.06,16.8,20.08,11.38,1.2,20.98-7.72,20.92-18.87-.04-6.71,3.14-13.17,9.1-16.26,14.29-7.43,28.64,2.83,28.64,16.37,0,31.21-25.39,56.6-56.6,56.6-10.31,0-19.98,2.79-28.32,7.63-19.43-48.46-66.74-82.84-122-83.1-10.12-.05-18.92,7.73-19.46,17.83-.58,10.89,8.08,19.9,18.84,19.9,52.02,0,94.34,42.32,94.34,94.34,0,30.84,24.8,56,55.5,56.59,9.62,.19,18.85-7.23,19.86-16.8,1.2-11.38-7.72-20.98-18.87-20.92-6.71,.04-13.17-3.14-16.26-9.1-7.43-14.29,2.83-28.64,16.37-28.64,31.21,0,56.6,25.39,56.6,56.6,0,46.52-33.85,85.26-78.21,92.93,1.78-5.53,2.74-11.4,2.74-17.46,0-30.78-24.69-55.9-55.31-56.59-10.46-.24-19.92,7.95-20.15,18.42-.24,10.58,8.24,19.25,18.76,19.3,7.17,.04,14,3.66,17,10.17,4.67,10.13,.6,20.56-7.67,25.16-64.11-10.88-116.09-57.82-134.3-119.14,9.68-17.69,28.02-28.97,48.45-29.38,9.95-.2,18.85,6.89,19.91,16.78,1.22,11.39-7.77,21.05-18.94,20.94-6.69-.06-13.12,3.12-16.19,9.06-7.42,14.35,2.8,28.68,16.37,28.68,31.4,0,56.91-25.7,56.6-57.17s-29.11-57.71-61.89-55.9c-18.95,1.05-36.7,7.71-51.32,18.67,.01-73.09,27.89-139.78,73.55-190.05,24.61,17.44,39.49,45.58,39.66,76.35,.06,10.26,8.01,19.08,18.26,19.4,10.7,.33,19.47-8.24,19.47-18.86,0-40.96-18.61-78.66-49.86-103.4,44.23-37.21,99.96-61.16,161.01-65.65-9.02,42.46-46.69,74.45-91.74,74.71-10.26,.06-19.08,8-19.4,18.26-.34,10.7,8.24,19.47,18.86,19.47,22.12,0,42.98-5.5,61.32-15.15,8.6,19.68,28.07,33.57,50.78,34.01,10.44,.2,19.6-7.75,19.96-18.19s-8.21-19.54-18.86-19.54-18.87-8.46-18.87-18.87c0-.73,.06-1.46,.14-2.18,23.24-23.82,37.6-56.34,37.6-92.16h0c0-10.42-8.45-18.87-18.87-18.87h0c-87.2,0-166.37,34.99-224.24,91.65-1.29,.98-2.47,2.14-3.49,3.46-57.47,58-93.02,137.74-93.02,225.64,0,17.26,2.13,34.04,6.12,50.08,.11,.54,.24,1.08,.39,1.6,.01,.06,.03,.12,.04,.17,.01,.05,.02,.09,.04,.14,20.75,80.13,88.29,141.61,171.59,153.46,.29,.05,.59,.09,.88,.12,9.31,1.28,18.82,1.96,28.48,1.96,26.44,0,51.06-7.84,71.73-21.27-40.67,95.21-132.07,163.75-240.03,171.47-5.48-5.7-13.31-9.12-21.95-8.65-14.32,.78-26.04,12.6-26.7,26.92-.75,16.24,12.2,29.64,28.27,29.64,8.74,0,16.54-3.96,21.74-10.19,79.64-5.36,151.41-39.89,204.66-93.01-.28,45.21-32.5,82.98-75.2,91.81-5.17-4.76-12.1-7.63-19.72-7.48-14.71,.3-27.01,12.28-27.68,26.98-.73,16.23,12.21,29.61,28.27,29.61,9.3,0,17.52-4.5,22.68-11.42,56.44-9.81,100.67-55.55,108.22-112.72,12.77,16.34,20.05,36.72,20.05,58.11,0,24.91-16.18,46.1-38.59,53.65-5.62-4.65-13.07-7.16-21.11-6.31-13.03,1.38-23.6,11.89-25.04,24.92-1.89,17.07,11.43,31.52,28.12,31.52,9.72,0,18.29-4.91,23.39-12.37,40.74-10.43,70.95-47.45,70.95-91.4Z"/>
        <circle class="cls-1" cx="509.43" cy="877.36" r="28.3"/>
        <path class="cls-1" d="M850.63,745.33c-8.64-.47-16.47,2.95-21.95,8.65-107.97-7.72-199.37-76.26-240.03-171.47,20.67,13.43,45.3,21.27,71.73,21.27,9.66,0,19.16-.68,28.48-1.96,.3-.04,.59-.07,.88-.12,83.3-11.85,150.83-73.32,171.58-153.44,.2-.64,.35-1.29,.48-1.95,3.99-16.04,6.12-32.81,6.12-50.07,0-87.9-35.55-167.65-93.02-225.64-1.02-1.32-2.2-2.47-3.49-3.45-57.88-56.66-137.05-91.66-224.25-91.66h0c-10.42,0-18.87,8.45-18.87,18.87h0c0,35.83,14.36,68.34,37.6,92.16,.08,.72,.14,1.44,.14,2.18,0,10.5-8.63,19.03-19.16,18.87-6.59-.1-12.91,3.05-15.98,8.88-7.6,14.41,2.66,28.85,16.28,28.85,23.19,0,43.15-14.02,51.89-34.02,18.11,9.54,38.68,15.02,60.51,15.15,10.19,.06,19.11-7.66,19.65-17.83,.58-10.89-8.08-19.9-18.84-19.9-45.29,0-83.23-32.08-92.29-74.71,61.06,4.48,116.79,28.44,161.01,65.65-31.05,24.59-49.62,61.97-49.86,102.62-.06,10.18,7.67,19.08,17.83,19.62,10.89,.58,19.9-8.08,19.9-18.84,0-30.98,14.91-59.35,39.66-76.89,45.66,50.26,73.54,116.96,73.55,190.05-14.63-10.97-32.4-17.64-51.38-18.67-31.91-1.75-60.23,21.77-61.76,53.69-1.54,32.02,23.7,58.64,55.22,59.36,9.73,.22,19.06-7.12,20.08-16.8,1.2-11.38-7.72-20.98-18.87-20.92-6.71,.04-13.17-3.14-16.26-9.1-7.43-14.29,2.83-28.64,16.37-28.64,20.89,0,39.74,11.37,49.61,29.39-18.21,61.33-70.2,108.26-134.3,119.15-8.27-4.6-12.35-15.04-7.67-25.16,3-6.51,9.83-10.13,17-10.17,10.52-.06,19-8.72,18.76-19.3s-9.69-18.65-20.15-18.42c-30.62,.69-55.31,25.81-55.31,56.59,0,6.06,.96,11.93,2.74,17.46-44.36-7.68-78.21-46.41-78.21-92.93,0-30.82,24.76-55.97,55.44-56.59,9.95-.2,18.86,6.88,19.92,16.78,1.22,11.39-7.77,21.05-18.94,20.94-6.69-.06-13.12,3.12-16.19,9.06-7.42,14.35,2.8,28.68,16.37,28.68,31.21,0,56.6-25.39,56.6-56.6,0-51.81,41.98-94,93.71-94.34,10.3-.07,19.17-7.97,19.49-18.26,.34-10.7-8.24-19.47-18.86-19.47-55.52,0-103.12,34.46-122.62,83.1-8.34-4.84-18.01-7.63-28.32-7.63-30.82,0-55.97-24.76-56.59-55.44-.2-9.95,6.88-18.86,16.78-19.92,11.39-1.22,21.05,7.77,20.94,18.94-.06,6.69,3.12,13.12,9.06,16.19,14.35,7.42,28.68-2.8,28.68-16.37,0-31.44-25.76-56.97-57.28-56.6-32.17,.38-57.12,28.22-55.85,60.37,1.16,29.29,15.73,55.18,37.73,71.7-22.14,16.63-36.74,42.77-37.72,72.3-.02,.23-.05,.46-.05,.69-.02,.82-.03,1.67-.03,2.49,0,69.76,22.4,134.37,60.36,187.06-.28,1.47-.55,2.95-.81,4.45-36.95,24.32-59.55,65.78-59.55,110.38s30.21,80.97,70.95,91.4c5.2,7.62,14.03,12.57,24,12.37,14.69-.31,26.97-12.25,27.66-26.93,.76-16.25-12.19-29.66-28.27-29.66-6.85,0-13.12,2.43-18.02,6.48-22.4-7.54-38.59-28.73-38.59-53.65,0-21.39,7.28-41.76,20.05-58.11,7.55,57.17,51.78,102.91,108.22,112.72,5.36,7.19,14.03,11.77,23.77,11.4,14.5-.55,26.49-12.4,27.18-26.89,.78-16.26-12.18-29.69-28.27-29.69-7.38,0-14.09,2.85-19.12,7.48-42.7-8.83-74.92-46.6-75.2-91.81,53.25,53.11,125.02,87.65,204.66,93.01,5.19,6.22,13,10.19,21.74,10.19,16.07,0,29.02-13.4,28.27-29.64-.66-14.33-12.38-26.15-26.7-26.92Z"/>
      </g>
    </g>
  </g>
</svg>