<?xml version="1.0" encoding="utf-8"?>
<svg viewBox="5.4334 7.3375 365.4409 75.5598" xmlns="http://www.w3.org/2000/svg">
  <g id="svgg" transform="matrix(1, 0, 0, 1, -15.059060096740723, -77.80514526367188)">
    <path id="path0" d="M83.764 103.954 C 83.198 104.381,82.829 120.049,83.385 120.049 C 83.526 120.049,83.641 119.600,83.641 119.051 C 83.641 117.779,83.976 117.978,84.378 119.489 C 84.550 120.136,84.817 120.886,84.972 121.156 C 85.126 121.427,85.463 122.312,85.721 123.124 C 85.980 123.936,86.267 124.711,86.359 124.846 C 86.452 124.982,86.718 125.701,86.951 126.445 C 87.184 127.189,87.572 128.241,87.814 128.782 C 88.056 129.323,88.329 130.115,88.422 130.542 C 88.514 130.968,88.804 131.739,89.067 132.254 C 89.330 132.770,89.546 133.362,89.546 133.570 C 89.547 133.778,89.725 134.280,89.940 134.686 C 90.156 135.092,90.499 135.978,90.702 136.654 C 90.905 137.331,91.157 137.995,91.262 138.130 C 91.367 138.266,91.643 139.041,91.875 139.852 C 92.108 140.664,92.383 141.439,92.488 141.574 C 92.593 141.710,92.817 142.263,92.986 142.804 C 93.155 143.346,93.433 144.121,93.603 144.526 C 93.774 144.932,94.103 145.818,94.335 146.494 C 94.567 147.171,94.903 148.057,95.082 148.462 C 95.260 148.868,95.598 149.865,95.832 150.677 C 96.066 151.488,96.396 152.374,96.567 152.645 C 96.737 152.915,96.954 153.524,97.048 153.998 C 97.142 154.471,97.363 155.086,97.538 155.363 C 97.713 155.640,98.049 156.554,98.284 157.392 C 98.519 158.231,98.814 158.918,98.940 158.918 C 99.065 158.918,99.100 159.028,99.016 159.164 C 98.720 159.643,100.512 159.419,101.061 158.908 L 101.599 158.406 101.599 131.479 C 101.599 104.879,101.593 104.545,101.107 104.059 C 100.443 103.395,84.632 103.299,83.764 103.954 M72.817 104.206 C 72.817 104.287,73.135 104.651,73.524 105.015 C 73.984 105.444,74.293 106.040,74.408 106.717 C 74.504 107.290,74.723 107.898,74.892 108.068 C 75.062 108.237,75.343 108.982,75.516 109.723 C 75.690 110.464,75.971 111.236,76.142 111.439 C 76.312 111.642,76.533 112.196,76.633 112.669 C 76.732 113.143,77.012 113.973,77.253 114.514 C 77.495 115.055,77.882 116.107,78.114 116.851 C 78.346 117.595,78.632 118.309,78.751 118.438 C 78.870 118.566,78.968 119.175,78.971 119.791 C 78.976 121.303,79.369 120.655,79.587 118.774 C 79.678 117.987,79.842 117.343,79.950 117.343 C 80.059 117.343,80.125 117.011,80.097 116.605 C 80.069 116.199,80.115 115.867,80.200 115.867 C 80.286 115.867,80.500 114.815,80.676 113.530 C 80.853 112.245,81.107 111.193,81.241 111.193 C 81.375 111.193,81.431 110.914,81.365 110.572 C 81.300 110.231,81.343 109.892,81.460 109.820 C 81.577 109.747,81.673 108.931,81.673 108.005 C 81.673 105.888,81.207 105.538,77.737 105.049 C 76.451 104.868,74.971 104.571,74.446 104.389 C 73.427 104.036,72.817 103.968,72.817 104.206 M78.703 121.095 C 78.529 121.678,78.526 122.263,78.696 122.263 C 78.914 122.263,79.213 121.684,79.213 121.259 C 79.213 121.066,78.755 120.919,78.703 121.095 " stroke="none" fill="#7309ce" fill-rule="evenodd"/>
    <path id="path1" d="M45.414 103.003 C 44.716 103.185,43.914 104.162,43.546 105.279 C 43.365 105.826,43.136 106.273,43.036 106.273 C 42.936 106.273,42.655 106.827,42.412 107.503 C 42.168 108.180,41.892 108.733,41.797 108.733 C 41.702 108.733,41.425 109.287,41.182 109.963 C 40.938 110.640,40.662 111.193,40.567 111.193 C 40.472 111.193,40.195 111.747,39.952 112.423 C 39.708 113.100,39.437 113.653,39.349 113.653 C 39.261 113.653,38.983 114.151,38.732 114.760 C 38.481 115.369,38.199 115.867,38.105 115.867 C 38.011 115.867,37.735 116.421,37.491 117.097 C 37.248 117.774,36.971 118.327,36.876 118.327 C 36.781 118.327,36.505 118.881,36.261 119.557 C 36.018 120.234,35.741 120.787,35.646 120.787 C 35.551 120.787,35.275 121.341,35.031 122.017 C 34.788 122.694,34.511 123.247,34.416 123.247 C 34.321 123.247,34.045 123.801,33.801 124.477 C 33.558 125.154,33.281 125.707,33.186 125.707 C 33.091 125.707,32.815 126.261,32.571 126.937 C 32.328 127.614,32.051 128.167,31.956 128.167 C 31.861 128.167,31.585 128.721,31.341 129.397 C 31.098 130.074,30.821 130.627,30.726 130.627 C 30.631 130.627,30.355 131.181,30.111 131.857 C 29.868 132.534,29.591 133.087,29.496 133.087 C 29.401 133.087,29.125 133.641,28.881 134.317 C 28.638 134.994,28.361 135.547,28.266 135.547 C 28.171 135.547,27.895 136.101,27.651 136.777 C 27.408 137.454,27.131 138.007,27.036 138.007 C 26.941 138.007,26.665 138.561,26.421 139.237 C 26.178 139.914,25.901 140.467,25.806 140.467 C 25.711 140.467,25.435 141.021,25.191 141.697 C 24.948 142.374,24.671 142.927,24.576 142.927 C 24.481 142.927,24.205 143.481,23.961 144.157 C 23.718 144.834,23.441 145.387,23.346 145.387 C 23.251 145.387,22.975 145.941,22.731 146.617 C 22.488 147.294,22.211 147.847,22.116 147.847 C 22.021 147.847,21.745 148.401,21.501 149.077 C 21.258 149.754,20.970 150.308,20.862 150.308 C 19.871 150.308,21.078 153.471,22.079 153.497 C 22.248 153.502,22.386 153.605,22.386 153.727 C 22.386 153.849,22.940 154.147,23.616 154.390 C 24.293 154.634,24.846 154.910,24.846 155.005 C 24.846 155.100,25.400 155.377,26.076 155.620 C 26.753 155.864,27.306 156.140,27.306 156.235 C 27.306 156.330,27.860 156.607,28.536 156.850 C 29.213 157.094,29.766 157.367,29.766 157.457 C 29.766 157.547,30.292 157.822,30.935 158.067 C 31.577 158.312,32.235 158.645,32.397 158.807 C 32.559 158.969,33.195 159.250,33.812 159.432 C 34.428 159.614,34.932 159.850,34.932 159.955 C 34.932 160.061,35.209 160.148,35.547 160.148 C 35.886 160.148,36.162 160.055,36.162 159.941 C 36.162 159.828,36.445 159.606,36.790 159.448 C 37.136 159.291,37.534 158.830,37.675 158.425 C 37.817 158.019,38.011 157.688,38.106 157.688 C 38.201 157.688,38.478 157.134,38.721 156.458 C 38.965 155.781,39.263 155.228,39.385 155.228 C 39.507 155.228,39.606 155.098,39.606 154.940 C 39.606 154.630,45.272 143.130,45.525 142.927 C 45.610 142.860,45.877 142.279,46.120 141.636 C 46.363 140.993,46.635 140.467,46.725 140.467 C 46.815 140.467,47.088 139.914,47.332 139.237 C 47.575 138.561,47.852 138.007,47.947 138.007 C 48.042 138.007,48.318 137.454,48.562 136.777 C 48.805 136.101,49.082 135.547,49.177 135.547 C 49.272 135.547,49.548 134.994,49.792 134.317 C 50.035 133.641,50.312 133.087,50.407 133.087 C 50.502 133.087,50.778 132.534,51.022 131.857 C 51.265 131.181,51.542 130.627,51.637 130.627 C 51.732 130.627,52.008 130.074,52.252 129.397 C 52.495 128.721,52.772 128.167,52.867 128.167 C 52.962 128.167,53.238 127.614,53.482 126.937 C 53.725 126.261,54.002 125.707,54.097 125.707 C 54.192 125.707,54.468 125.154,54.712 124.477 C 54.955 123.801,55.232 123.247,55.327 123.247 C 55.422 123.247,55.698 122.694,55.942 122.017 C 56.185 121.341,56.484 120.787,56.605 120.787 C 56.727 120.787,56.809 120.704,56.789 120.603 C 56.730 120.318,57.590 118.469,57.859 118.300 C 57.991 118.217,58.094 118.081,58.088 117.997 C 58.067 117.688,58.857 115.985,59.089 115.840 C 59.221 115.757,59.309 115.646,59.285 115.594 C 59.206 115.421,59.873 114.035,60.322 113.435 C 61.566 111.779,60.580 109.485,58.302 108.733 C 57.761 108.554,57.319 108.326,57.319 108.226 C 57.319 108.126,56.765 107.845,56.089 107.602 C 55.412 107.359,54.859 107.082,54.859 106.987 C 54.859 106.892,54.305 106.615,53.629 106.372 C 52.952 106.129,52.399 105.852,52.399 105.757 C 52.399 105.662,51.845 105.385,51.169 105.142 C 50.492 104.899,49.938 104.626,49.938 104.536 C 49.938 104.446,49.413 104.173,48.770 103.931 C 48.127 103.688,47.546 103.410,47.478 103.313 C 47.302 103.061,45.963 102.860,45.414 103.003 M58.961 130.233 C 58.870 130.472,58.795 130.832,58.795 131.034 C 58.795 131.236,58.653 131.542,58.480 131.715 C 58.307 131.888,58.171 132.476,58.179 133.022 C 58.188 133.727,58.101 133.979,57.879 133.893 C 57.648 133.805,57.607 133.978,57.724 134.562 C 57.815 135.015,57.774 135.419,57.628 135.511 C 57.402 135.653,57.256 136.344,56.921 138.854 C 56.868 139.252,56.736 139.640,56.628 139.715 C 56.519 139.791,56.227 141.181,55.978 142.804 C 55.729 144.428,55.447 145.812,55.351 145.879 C 55.255 145.947,54.982 147.386,54.745 149.077 C 54.508 150.769,54.218 152.271,54.100 152.417 C 53.662 152.958,53.537 156.086,53.939 156.471 C 54.977 157.463,55.421 157.622,58.359 158.061 C 60.069 158.317,61.407 158.623,61.333 158.743 C 61.260 158.863,61.516 158.935,61.903 158.904 C 62.291 158.873,62.774 158.918,62.977 159.004 C 63.180 159.090,63.788 159.203,64.330 159.255 C 64.871 159.307,65.590 159.411,65.929 159.486 C 67.466 159.828,68.262 159.898,67.897 159.659 C 67.694 159.526,67.652 159.415,67.805 159.413 C 67.958 159.411,68.220 159.576,68.389 159.779 C 68.781 160.251,69.770 160.256,69.951 159.786 C 70.027 159.588,69.999 159.370,69.889 159.302 C 69.779 159.234,69.547 158.511,69.374 157.695 C 69.201 156.879,68.968 156.212,68.857 156.212 C 68.745 156.212,68.535 155.741,68.390 155.166 C 68.245 154.591,67.922 153.678,67.672 153.137 C 67.421 152.595,67.140 151.824,67.047 151.423 C 66.953 151.022,66.675 150.247,66.428 149.701 C 66.181 149.155,65.835 148.210,65.658 147.601 C 65.482 146.993,65.264 146.439,65.174 146.371 C 65.084 146.304,64.819 145.584,64.585 144.772 C 64.351 143.961,64.075 143.186,63.970 143.050 C 63.865 142.915,63.589 142.196,63.356 141.451 C 63.123 140.707,62.735 139.656,62.493 139.114 C 62.252 138.573,61.972 137.743,61.873 137.269 C 61.773 136.796,61.550 136.242,61.377 136.039 C 61.203 135.836,60.921 135.034,60.750 134.256 C 60.578 133.478,60.349 132.841,60.241 132.841 C 60.132 132.841,59.925 132.371,59.779 131.796 C 59.337 130.048,59.161 129.712,58.961 130.233 " stroke="none" fill="#c11beb" fill-rule="evenodd"/>
    <path id="path2" d="M65.068 102.753 C 64.023 103.014,63.546 103.956,63.222 106.398 C 63.052 107.682,62.834 108.733,62.738 108.733 C 62.641 108.733,62.365 110.089,62.123 111.747 C 61.881 113.404,61.600 114.871,61.498 115.006 C 61.397 115.141,61.110 116.600,60.862 118.248 C 60.614 119.895,60.346 121.203,60.267 121.154 C 60.187 121.104,59.919 122.496,59.672 124.247 C 59.425 125.997,59.142 127.429,59.044 127.429 C 58.946 127.429,58.796 128.121,58.712 128.967 C 58.627 129.812,58.487 130.753,58.401 131.058 C 58.306 131.395,58.353 131.611,58.520 131.611 C 58.671 131.611,58.796 131.362,58.798 131.058 C 58.806 129.865,59.235 129.768,59.526 130.893 C 59.988 132.675,60.049 132.841,60.248 132.841 C 60.353 132.841,60.578 133.478,60.750 134.256 C 60.921 135.034,61.203 135.836,61.377 136.039 C 61.550 136.242,61.773 136.796,61.873 137.269 C 61.972 137.743,62.252 138.573,62.493 139.114 C 62.735 139.656,63.123 140.707,63.356 141.451 C 63.589 142.196,63.865 142.915,63.970 143.050 C 64.075 143.186,64.351 143.961,64.585 144.772 C 64.819 145.584,65.084 146.304,65.174 146.371 C 65.264 146.439,65.482 146.993,65.658 147.601 C 65.835 148.210,66.178 149.151,66.422 149.692 C 66.665 150.234,66.995 151.165,67.155 151.761 C 67.314 152.358,67.594 153.077,67.776 153.360 C 67.957 153.643,68.183 154.295,68.277 154.809 C 68.371 155.323,68.584 155.879,68.750 156.045 C 68.915 156.211,69.193 156.953,69.367 157.694 C 69.541 158.434,69.773 159.155,69.883 159.295 C 70.120 159.597,69.886 160.019,69.373 160.214 C 69.121 160.310,69.173 160.361,69.540 160.374 C 69.834 160.385,70.242 160.228,70.445 160.025 C 70.648 159.822,70.885 159.656,70.972 159.656 C 71.460 159.656,71.829 158.758,72.094 156.924 C 72.259 155.788,72.466 154.803,72.555 154.736 C 72.643 154.668,72.923 153.284,73.176 151.661 C 73.429 150.037,73.716 148.598,73.813 148.462 C 73.911 148.327,74.189 146.860,74.431 145.203 C 74.673 143.546,74.939 142.189,75.022 142.189 C 75.104 142.189,75.195 141.996,75.224 141.759 C 75.488 139.570,76.176 135.790,76.290 135.904 C 76.369 135.984,76.634 134.635,76.878 132.907 C 77.122 131.180,77.412 129.649,77.522 129.505 C 77.631 129.361,77.667 128.946,77.601 128.582 C 77.535 128.219,77.580 127.921,77.700 127.921 C 77.821 127.921,78.012 127.229,78.126 126.384 C 78.395 124.380,78.418 124.191,78.449 123.663 C 78.463 123.418,78.585 123.287,78.721 123.370 C 78.856 123.454,78.967 123.338,78.967 123.112 C 78.967 122.849,78.835 122.753,78.598 122.844 C 78.395 122.922,78.229 122.879,78.229 122.748 C 78.229 122.616,78.423 122.508,78.659 122.505 C 78.950 122.503,78.994 122.441,78.796 122.315 C 78.466 122.105,78.518 121.224,78.867 121.107 C 79.126 121.021,79.010 118.822,78.727 118.450 C 78.624 118.315,78.349 117.595,78.116 116.851 C 77.884 116.107,77.495 115.055,77.253 114.514 C 77.012 113.973,76.732 113.143,76.633 112.669 C 76.533 112.196,76.312 111.642,76.142 111.439 C 75.971 111.236,75.690 110.461,75.518 109.717 C 75.346 108.973,75.105 108.299,74.983 108.219 C 74.861 108.140,74.605 107.482,74.414 106.758 C 74.161 105.798,73.819 105.222,73.151 104.628 C 72.212 103.792,71.934 103.626,72.202 104.059 C 72.285 104.194,72.237 104.305,72.093 104.305 C 71.950 104.305,71.833 104.194,71.833 104.059 C 71.833 103.924,71.660 103.813,71.449 103.813 C 71.223 103.813,71.130 103.939,71.221 104.121 C 71.307 104.290,71.218 104.234,71.024 103.998 C 70.830 103.761,70.386 103.567,70.037 103.567 C 69.687 103.567,69.342 103.471,69.270 103.353 C 69.197 103.236,68.554 103.064,67.841 102.971 C 67.127 102.878,66.322 102.763,66.052 102.716 C 65.781 102.669,65.338 102.686,65.068 102.753 M83.641 119.051 C 83.641 119.600,83.528 120.049,83.390 120.049 C 82.832 120.049,83.201 158.597,83.764 159.022 C 84.357 159.471,98.744 159.604,99.016 159.164 C 99.100 159.028,99.065 158.918,98.940 158.918 C 98.814 158.918,98.519 158.231,98.284 157.392 C 98.049 156.554,97.713 155.640,97.538 155.363 C 97.363 155.086,97.142 154.471,97.048 153.998 C 96.954 153.524,96.737 152.915,96.567 152.645 C 96.396 152.374,96.066 151.488,95.832 150.677 C 95.598 149.865,95.260 148.868,95.082 148.462 C 94.903 148.057,94.567 147.171,94.335 146.494 C 94.103 145.818,93.774 144.932,93.603 144.526 C 93.433 144.121,93.155 143.346,92.986 142.804 C 92.817 142.263,92.593 141.710,92.488 141.574 C 92.383 141.439,92.108 140.664,91.875 139.852 C 91.643 139.041,91.367 138.266,91.262 138.130 C 91.157 137.995,90.905 137.331,90.702 136.654 C 90.499 135.978,90.156 135.092,89.940 134.686 C 89.725 134.280,89.547 133.778,89.546 133.570 C 89.546 133.362,89.330 132.770,89.067 132.254 C 88.804 131.739,88.514 130.968,88.422 130.542 C 88.329 130.115,88.056 129.323,87.814 128.782 C 87.572 128.241,87.184 127.189,86.951 126.445 C 86.718 125.701,86.452 124.982,86.359 124.846 C 86.267 124.711,85.980 123.936,85.721 123.124 C 85.463 122.312,85.126 121.427,84.972 121.156 C 84.817 120.886,84.550 120.136,84.378 119.489 C 83.976 117.978,83.641 117.779,83.641 119.051 M57.504 134.932 C 57.440 135.271,57.482 135.547,57.599 135.547 C 57.715 135.547,57.811 135.271,57.811 134.932 C 57.811 134.594,57.768 134.317,57.716 134.317 C 57.664 134.317,57.569 134.594,57.504 134.932 M67.575 159.567 C 67.313 159.829,67.649 160.148,68.187 160.148 C 68.611 160.148,68.644 160.086,68.389 159.779 C 68.058 159.380,67.823 159.319,67.575 159.567 " stroke="none" fill="#861cd4" fill-rule="evenodd"/>
    <path id="path3" d="M277.983 85.430 L 277.368 85.746 277.305 122.301 C 277.248 156.080,277.274 158.882,277.651 159.194 C 278.232 159.677,294.279 159.694,294.760 159.213 C 295.010 158.963,295.095 156.640,295.149 148.573 C 295.191 142.379,295.310 138.253,295.449 138.253 C 295.575 138.253,296.500 137.451,297.503 136.470 C 300.649 133.395,300.444 133.485,300.997 134.932 C 301.230 135.541,301.494 136.039,301.584 136.039 C 301.674 136.039,301.947 136.593,302.190 137.269 C 302.433 137.946,302.707 138.499,302.799 138.499 C 302.890 138.499,303.183 138.996,303.450 139.604 C 303.718 140.212,304.004 140.710,304.087 140.711 C 304.170 140.712,304.437 141.239,304.680 141.882 C 304.922 142.525,305.187 143.106,305.268 143.173 C 305.349 143.241,305.913 144.293,306.521 145.510 C 307.129 146.728,307.699 147.780,307.788 147.848 C 307.877 147.916,308.147 148.470,308.386 149.078 C 308.626 149.687,308.888 150.240,308.968 150.308 C 309.048 150.375,309.598 151.399,310.189 152.583 C 310.781 153.767,311.337 154.736,311.426 154.736 C 311.515 154.736,311.787 155.289,312.030 155.966 C 312.273 156.642,312.554 157.196,312.654 157.196 C 312.755 157.196,312.974 157.612,313.142 158.122 C 313.644 159.643,313.729 159.656,323.566 159.656 C 333.908 159.656,333.825 159.672,333.825 157.635 C 333.825 156.987,333.737 156.458,333.628 156.458 C 333.519 156.458,333.231 155.904,332.988 155.228 C 332.745 154.551,332.469 153.998,332.375 153.998 C 332.281 153.998,331.999 153.499,331.748 152.891 C 331.497 152.282,331.225 151.782,331.144 151.781 C 331.063 151.780,330.778 151.282,330.511 150.674 C 330.244 150.067,329.954 149.569,329.868 149.569 C 329.781 149.569,329.520 149.071,329.287 148.462 C 329.055 147.854,328.778 147.355,328.672 147.355 C 328.567 147.355,328.281 146.833,328.037 146.194 C 327.793 145.555,327.390 144.815,327.142 144.549 C 326.894 144.282,326.691 143.927,326.691 143.760 C 326.691 143.592,326.551 143.308,326.379 143.130 C 326.208 142.951,325.859 142.334,325.604 141.759 C 325.349 141.184,325.069 140.713,324.980 140.713 C 324.892 140.713,324.625 140.169,324.385 139.503 C 324.146 138.837,323.813 138.240,323.647 138.176 C 323.480 138.112,323.193 137.605,323.010 137.050 C 322.826 136.494,322.600 136.039,322.507 136.039 C 322.414 136.039,322.129 135.569,321.874 134.994 C 321.620 134.419,321.271 133.802,321.099 133.623 C 320.928 133.444,320.787 133.161,320.787 132.993 C 320.787 132.825,320.584 132.470,320.336 132.204 C 320.088 131.938,319.686 131.198,319.442 130.559 C 319.198 129.920,318.912 129.397,318.806 129.397 C 318.700 129.397,318.424 128.899,318.191 128.290 C 317.959 127.681,317.697 127.183,317.611 127.183 C 317.524 127.183,317.235 126.686,316.968 126.079 C 316.701 125.471,316.414 124.973,316.331 124.972 C 316.248 124.970,315.990 124.471,315.757 123.862 C 315.525 123.253,315.233 122.755,315.109 122.755 C 314.697 122.755,314.875 122.204,315.437 121.745 C 316.147 121.164,318.580 118.910,320.786 116.790 C 321.735 115.876,322.595 115.127,322.695 115.124 C 322.796 115.121,323.531 114.457,324.329 113.648 C 325.126 112.839,325.867 112.177,325.974 112.177 C 326.082 112.177,326.923 111.403,327.845 110.457 C 328.766 109.511,329.607 108.736,329.713 108.735 C 330.526 108.727,331.734 106.845,331.734 105.585 C 331.734 103.471,332.246 103.567,321.021 103.567 L 311.262 103.567 310.180 104.520 C 309.028 105.533,307.734 106.745,304.868 109.492 C 303.892 110.428,303.019 111.193,302.929 111.193 C 302.839 111.193,302.004 111.968,301.073 112.915 C 300.143 113.862,299.300 114.637,299.199 114.638 C 299.098 114.638,298.207 115.468,297.218 116.483 C 296.230 117.497,295.374 118.327,295.317 118.327 C 295.260 118.327,295.183 111.026,295.147 102.103 C 295.094 89.198,295.015 85.814,294.760 85.560 C 294.295 85.093,278.868 84.974,277.983 85.430 M242.251 101.763 C 241.473 101.821,240.836 101.975,240.836 102.103 C 240.836 102.232,240.555 102.337,240.211 102.337 C 239.350 102.337,235.823 103.080,235.671 103.294 C 235.603 103.389,234.828 103.680,233.948 103.939 C 233.069 104.198,232.203 104.553,232.024 104.727 C 231.845 104.901,231.589 105.043,231.454 105.043 C 231.318 105.043,230.725 105.375,230.135 105.781 C 229.545 106.187,228.948 106.519,228.808 106.519 C 228.668 106.519,228.435 106.740,228.290 107.011 C 228.145 107.282,227.892 107.505,227.728 107.508 C 227.355 107.515,224.600 110.284,224.600 110.653 C 224.600 110.801,224.432 111.017,224.227 111.132 C 223.333 111.632,221.071 116.460,221.266 117.450 C 221.442 118.344,222.069 119.065,222.670 119.065 C 222.920 119.065,223.124 119.157,223.124 119.270 C 223.124 119.383,224.259 119.680,225.646 119.931 C 227.033 120.182,228.223 120.460,228.290 120.549 C 228.358 120.638,229.465 120.911,230.750 121.156 C 232.036 121.401,233.146 121.690,233.217 121.797 C 233.289 121.904,234.092 122.069,235.002 122.162 C 236.862 122.352,237.389 122.029,238.278 120.154 C 238.957 118.725,240.949 117.097,242.022 117.097 C 242.159 117.097,242.318 116.959,242.374 116.790 C 242.446 116.572,243.374 116.457,245.555 116.396 C 249.897 116.275,252.155 117.332,253.205 119.977 C 253.657 121.115,253.639 121.146,252.399 121.392 C 251.925 121.485,251.205 121.708,250.800 121.886 C 250.394 122.065,249.259 122.351,248.278 122.522 C 247.297 122.694,246.494 122.905,246.494 122.992 C 246.494 123.079,245.443 123.357,244.157 123.610 C 242.872 123.863,241.820 124.143,241.820 124.232 C 241.820 124.322,240.713 124.598,239.360 124.846 C 238.007 125.095,236.900 125.368,236.900 125.453 C 236.900 125.539,236.070 125.815,235.055 126.068 C 234.041 126.321,233.210 126.596,233.210 126.679 C 233.210 126.762,232.685 126.985,232.042 127.174 C 231.040 127.470,229.682 128.116,226.531 129.799 C 226.172 129.991,225.816 130.311,225.739 130.510 C 225.662 130.710,225.471 130.873,225.313 130.873 C 224.939 130.873,223.125 132.635,223.124 133.000 C 223.124 133.154,222.972 133.339,222.786 133.410 C 222.355 133.576,220.664 136.979,220.664 137.682 C 220.664 137.974,220.526 138.259,220.357 138.315 C 219.955 138.449,219.911 147.035,220.310 147.303 C 220.454 147.399,220.711 148.115,220.882 148.893 C 221.052 149.671,221.327 150.446,221.492 150.615 C 221.657 150.784,221.948 151.310,222.138 151.784 C 222.329 152.257,222.684 152.789,222.927 152.966 C 223.171 153.143,223.370 153.393,223.370 153.522 C 223.370 153.839,226.223 156.704,226.538 156.704 C 226.674 156.704,226.931 156.903,227.108 157.146 C 227.285 157.390,227.798 157.739,228.250 157.923 C 228.701 158.106,229.199 158.382,229.357 158.535 C 229.659 158.828,232.057 159.656,232.603 159.656 C 232.779 159.656,232.960 159.760,233.005 159.888 C 233.338 160.831,245.293 160.858,246.002 159.918 C 246.070 159.828,246.817 159.549,247.663 159.297 C 248.509 159.046,249.200 158.768,249.200 158.680 C 249.200 158.592,249.658 158.319,250.216 158.072 C 250.775 157.826,251.439 157.444,251.692 157.225 C 251.945 157.006,252.366 156.641,252.626 156.415 C 253.908 155.299,254.120 155.348,254.124 156.756 C 254.129 158.572,254.313 159.082,255.081 159.400 C 256.085 159.816,270.958 159.645,271.390 159.213 C 272.329 158.273,271.848 115.572,270.891 114.892 C 270.789 114.820,270.549 114.275,270.358 113.682 C 270.167 113.089,269.895 112.480,269.753 112.329 C 269.612 112.178,269.333 111.722,269.134 111.316 C 268.513 110.051,265.781 107.141,264.505 106.388 C 264.070 106.131,263.715 105.843,263.715 105.748 C 263.715 105.653,263.216 105.386,262.608 105.153 C 261.999 104.920,261.501 104.651,261.501 104.555 C 261.501 104.368,259.201 103.567,258.664 103.567 C 258.488 103.567,258.307 103.460,258.262 103.330 C 258.170 103.063,254.962 102.337,253.879 102.337 C 253.493 102.337,253.139 102.222,253.092 102.081 C 253.001 101.808,244.820 101.568,242.251 101.763 M353.752 102.091 C 353.752 102.226,353.392 102.339,352.952 102.341 C 351.767 102.348,348.721 103.037,348.626 103.321 C 348.581 103.456,348.400 103.567,348.224 103.567 C 347.817 103.567,345.305 104.359,345.141 104.539 C 345.074 104.613,344.576 104.894,344.034 105.164 C 343.493 105.433,342.995 105.722,342.927 105.806 C 342.860 105.890,342.445 106.143,342.005 106.368 C 341.565 106.593,341.205 106.873,341.205 106.989 C 341.205 107.105,341.012 107.265,340.775 107.344 C 339.901 107.638,335.547 111.627,335.547 112.135 C 335.547 112.251,335.334 112.540,335.073 112.776 C 334.812 113.013,334.419 113.583,334.200 114.045 C 333.981 114.506,333.708 114.883,333.593 114.883 C 333.477 114.883,333.184 115.437,332.940 116.113 C 332.697 116.790,332.412 117.343,332.308 117.343 C 332.203 117.343,331.940 117.952,331.724 118.696 C 331.507 119.440,331.241 120.049,331.132 120.049 C 331.023 120.049,330.737 121.073,330.497 122.325 C 330.256 123.576,329.938 124.679,329.790 124.776 C 329.419 125.017,329.413 137.708,329.783 137.955 C 329.928 138.051,330.187 138.961,330.359 139.975 C 330.530 140.990,330.860 142.208,331.092 142.681 C 331.324 143.155,331.664 144.013,331.848 144.588 C 332.032 145.163,332.260 145.633,332.355 145.633 C 332.451 145.633,332.719 146.132,332.951 146.740 C 333.184 147.349,333.465 147.847,333.576 147.847 C 333.686 147.847,333.893 148.181,334.036 148.589 C 334.178 148.996,334.465 149.396,334.675 149.476 C 334.884 149.556,335.055 149.768,335.055 149.947 C 335.055 150.126,335.332 150.489,335.670 150.756 C 336.009 151.022,336.285 151.339,336.285 151.461 C 336.285 151.697,338.056 153.506,338.286 153.506 C 338.360 153.506,338.948 154.004,339.593 154.613 C 340.238 155.221,340.914 155.720,341.096 155.720 C 341.278 155.720,341.515 155.860,341.624 156.031 C 341.732 156.202,342.290 156.562,342.863 156.830 C 343.437 157.099,343.907 157.399,343.909 157.496 C 343.910 157.594,344.520 157.851,345.264 158.067 C 346.009 158.283,346.617 158.541,346.617 158.640 C 346.617 158.738,347.475 159.029,348.524 159.286 C 349.573 159.543,350.488 159.835,350.558 159.934 C 351.287 160.968,369.004 160.954,369.004 159.919 C 369.004 159.828,369.693 159.612,370.535 159.438 C 371.377 159.264,372.756 158.799,373.600 158.405 C 374.443 158.010,375.249 157.688,375.389 157.688 C 375.530 157.688,375.646 157.585,375.646 157.461 C 375.646 157.336,376.041 157.103,376.524 156.944 C 377.007 156.784,377.457 156.510,377.525 156.334 C 377.593 156.158,377.834 155.951,378.061 155.874 C 378.891 155.593,382.691 152.139,383.395 151.026 C 383.530 150.812,383.895 150.258,384.206 149.796 C 385.059 148.526,384.139 145.879,382.845 145.879 C 382.725 145.879,382.412 145.680,382.150 145.437 C 381.887 145.193,381.285 144.778,380.812 144.514 C 380.338 144.250,379.862 143.896,379.754 143.727 C 379.646 143.558,379.424 143.419,379.262 143.419 C 379.100 143.419,378.649 143.146,378.261 142.812 C 377.873 142.478,377.236 142.063,376.846 141.891 C 376.457 141.718,376.138 141.499,376.138 141.403 C 376.138 141.307,375.750 141.045,375.277 140.820 C 374.803 140.595,374.416 140.313,374.416 140.193 C 374.416 139.240,372.354 140.051,370.750 141.636 C 368.742 143.619,368.364 143.935,367.263 144.548 C 366.800 144.807,366.365 145.074,366.298 145.143 C 366.028 145.415,364.296 145.907,363.110 146.047 C 362.420 146.129,361.797 146.291,361.725 146.407 C 361.541 146.704,358.672 146.671,358.672 146.371 C 358.672 146.236,358.329 146.125,357.910 146.125 C 356.899 146.125,354.477 145.410,354.054 144.987 C 353.868 144.801,353.573 144.649,353.398 144.649 C 353.002 144.649,350.062 141.945,350.062 141.580 C 350.062 141.434,349.865 141.147,349.625 140.941 C 349.386 140.736,349.031 140.075,348.836 139.472 C 348.642 138.870,348.409 138.321,348.318 138.253 C 348.228 138.186,348.075 137.660,347.979 137.085 L 347.804 136.039 366.230 136.039 C 386.752 136.039,385.448 136.147,385.884 134.413 C 386.100 133.552,385.555 124.593,385.254 124.052 C 385.120 123.812,384.839 122.736,384.629 121.660 C 384.418 120.584,384.157 119.643,384.048 119.569 C 383.938 119.495,383.657 118.838,383.421 118.109 C 383.186 117.380,382.835 116.625,382.641 116.431 C 382.447 116.237,382.288 115.944,382.288 115.780 C 382.288 115.468,380.966 113.313,380.013 112.069 C 378.686 110.339,375.097 107.003,373.891 106.379 C 373.503 106.179,373.186 105.928,373.186 105.823 C 373.186 105.718,372.632 105.433,371.956 105.190 C 371.279 104.947,370.726 104.666,370.726 104.566 C 370.726 104.467,370.089 104.174,369.311 103.916 C 368.533 103.657,367.837 103.366,367.764 103.268 C 367.591 103.036,364.262 102.337,363.330 102.337 C 362.932 102.337,362.608 102.226,362.608 102.091 C 362.608 101.936,360.968 101.845,358.180 101.845 C 355.392 101.845,353.752 101.936,353.752 102.091 M155.991 102.711 C 154.990 102.892,154.104 103.131,154.023 103.242 C 153.941 103.353,153.278 103.648,152.549 103.897 C 151.820 104.146,150.996 104.561,150.719 104.819 C 150.442 105.078,150.073 105.289,149.901 105.289 C 149.728 105.289,149.468 105.510,149.323 105.781 C 149.179 106.052,148.923 106.273,148.755 106.273 C 148.587 106.273,147.981 106.771,147.409 107.380 C 146.095 108.776,146.191 108.844,146.089 106.434 C 145.958 103.325,146.729 103.566,136.932 103.575 C 129.831 103.581,128.460 103.640,128.044 103.954 C 127.558 104.322,127.551 104.656,127.481 130.945 C 127.404 159.953,127.374 158.979,128.371 159.392 C 129.619 159.909,145.016 159.641,145.563 159.093 C 145.975 158.682,146.007 157.591,146.069 141.658 C 146.133 125.171,146.150 124.642,146.622 123.978 C 146.890 123.602,147.109 123.224,147.109 123.137 C 147.109 122.500,150.815 119.557,151.616 119.557 C 151.821 119.557,152.035 119.419,152.091 119.250 C 152.226 118.844,156.886 118.815,157.143 119.219 C 157.239 119.371,157.684 119.575,158.130 119.671 C 158.576 119.768,159.073 120.059,159.234 120.317 C 159.396 120.576,159.665 120.787,159.831 120.787 C 159.998 120.787,160.302 121.109,160.505 121.503 C 160.709 121.897,160.991 122.257,161.133 122.305 C 161.415 122.399,162.108 124.761,162.113 125.646 C 162.114 125.950,162.224 126.199,162.357 126.199 C 162.511 126.199,162.621 132.089,162.664 142.546 C 162.717 155.553,162.796 158.959,163.050 159.213 C 163.297 159.459,165.248 159.549,171.574 159.603 L 179.779 159.674 180.480 159.071 L 181.181 158.468 181.304 141.288 C 181.443 121.839,181.185 123.992,183.683 121.469 C 184.462 120.682,185.467 119.933,185.959 119.773 C 186.443 119.615,186.918 119.364,187.014 119.214 C 187.273 118.814,192.178 118.847,192.312 119.250 C 192.369 119.419,192.576 119.557,192.772 119.557 C 193.661 119.557,195.701 121.429,196.250 122.748 C 196.449 123.225,196.710 123.678,196.831 123.754 C 197.364 124.090,197.525 128.571,197.532 143.229 L 197.540 158.905 198.266 159.280 C 199.352 159.842,214.188 159.837,215.275 159.275 L 216.011 158.894 215.939 138.356 C 215.888 123.696,215.789 117.767,215.595 117.642 C 215.446 117.545,215.245 117.023,215.150 116.482 C 214.955 115.379,214.467 113.840,214.253 113.653 C 214.175 113.585,213.915 113.032,213.675 112.424 C 213.436 111.815,213.166 111.262,213.077 111.194 C 212.988 111.126,212.700 110.683,212.436 110.209 C 212.173 109.736,211.702 109.146,211.391 108.900 C 211.079 108.653,210.824 108.293,210.824 108.100 C 210.824 107.907,210.720 107.749,210.592 107.749 C 210.464 107.749,209.938 107.362,209.423 106.889 C 208.908 106.416,208.349 106.029,208.180 106.028 C 208.010 106.028,207.872 105.911,207.872 105.769 C 207.872 105.626,207.485 105.348,207.011 105.150 C 206.538 104.952,206.150 104.699,206.150 104.587 C 206.150 104.475,205.458 104.177,204.613 103.925 C 203.767 103.674,203.012 103.377,202.935 103.267 C 202.122 102.104,187.283 102.128,186.473 103.293 C 186.404 103.393,185.710 103.672,184.932 103.913 C 184.154 104.154,183.518 104.429,183.518 104.524 C 183.518 104.618,183.026 104.899,182.425 105.147 C 181.824 105.395,181.274 105.749,181.203 105.935 C 181.132 106.121,180.931 106.273,180.757 106.273 C 180.583 106.273,180.134 106.599,179.758 106.997 C 179.382 107.395,178.885 107.782,178.652 107.856 C 178.419 107.931,178.010 108.320,177.743 108.720 C 177.274 109.422,176.384 109.248,176.384 108.455 C 176.384 108.018,172.818 105.043,172.294 105.043 C 172.099 105.043,171.882 104.890,171.810 104.703 C 171.738 104.516,171.077 104.173,170.341 103.942 C 169.606 103.711,169.004 103.432,169.004 103.324 C 169.004 102.491,159.642 102.050,155.991 102.711 M359.820 116.384 C 360.677 116.534,361.378 116.737,361.378 116.837 C 361.378 116.937,361.826 117.166,362.374 117.347 C 362.921 117.528,363.447 117.797,363.542 117.946 C 363.637 118.094,364.019 118.410,364.391 118.646 C 364.763 118.883,365.068 119.235,365.068 119.428 C 365.068 119.621,365.217 119.867,365.398 119.975 C 365.580 120.084,365.922 120.726,366.158 121.402 C 366.394 122.079,366.688 122.824,366.811 123.059 C 366.935 123.294,367.036 123.765,367.036 124.105 L 367.036 124.723 357.565 124.723 C 349.310 124.723,348.093 124.676,348.093 124.354 C 348.093 124.151,348.204 123.985,348.339 123.985 C 348.475 123.985,348.585 123.778,348.585 123.524 C 348.585 122.955,349.269 120.979,349.528 120.797 C 349.633 120.724,349.911 120.249,350.147 119.742 C 350.383 119.234,350.654 118.819,350.750 118.819 C 350.845 118.819,351.239 118.547,351.625 118.214 C 352.012 117.882,352.703 117.486,353.163 117.335 C 353.622 117.183,353.998 116.969,353.998 116.859 C 353.998 116.279,357.552 115.989,359.820 116.384 M253.875 138.007 C 253.875 141.497,253.815 142.189,253.518 142.189 C 253.322 142.189,253.072 142.328,252.964 142.497 C 252.856 142.666,252.325 143.025,251.784 143.294 C 251.242 143.563,250.744 143.847,250.677 143.924 C 248.249 146.686,239.114 146.563,239.114 143.768 C 239.114 143.599,238.978 143.415,238.811 143.359 C 238.315 143.194,238.415 140.394,238.936 139.873 C 239.171 139.638,239.474 139.239,239.608 138.988 C 239.743 138.737,240.240 138.391,240.714 138.220 C 241.187 138.049,241.574 137.826,241.574 137.725 C 241.574 137.623,242.211 137.344,242.989 137.104 C 243.767 136.864,244.459 136.595,244.526 136.505 C 244.594 136.416,245.507 136.153,246.556 135.921 C 247.605 135.688,248.462 135.420,248.462 135.325 C 248.462 135.230,249.514 134.945,250.800 134.693 C 252.085 134.440,253.137 134.141,253.137 134.029 C 253.137 133.917,253.303 133.825,253.506 133.825 C 253.819 133.825,253.875 134.454,253.875 138.007 " stroke="none" fill="#040404" fill-rule="evenodd"/>
    <path id="path4" d="" stroke="none" fill="#441840" fill-rule="evenodd"/>
  </g>
</svg>
